<svg width="25" height="25" viewBox="0 0 25 25" fill="none" xmlns="http://www.w3.org/2000/svg">
<path d="M9.67627 9.58781C10.2063 10.0628 10.9083 10.3518 11.6763 10.3518H13.6763C14.4144 10.3528 15.1268 10.0807 15.6763 9.58781H9.67627ZM9.67627 9.58781C9.12681 10.0807 8.4144 10.3528 7.67627 10.3518L9.67627 9.58781ZM8.72627 4.35181V4.30181H8.67627H5.67627C5.39779 4.30181 5.13072 4.41243 4.93381 4.60934C4.7369 4.80626 4.62627 5.07333 4.62627 5.35181V7.35181C4.62627 7.63028 4.7369 7.89736 4.93381 8.09427C5.13072 8.29118 5.39779 8.40181 5.67627 8.40181H7.67627C7.95475 8.40181 8.22182 8.29118 8.41873 8.09427C8.61565 7.89736 8.72627 7.63028 8.72627 7.35181V4.35181ZM5.68627 10.3018H5.63627V10.3518V20.3168V20.3668H5.68627H7.67627H7.72627V20.3168V15.3518C7.72627 14.8346 7.93172 14.3386 8.29741 13.9729C8.66311 13.6073 9.1591 13.4018 9.67627 13.4018H11.6763C12.1934 13.4018 12.6894 13.6073 13.0551 13.9729C13.4208 14.3386 13.6263 14.8346 13.6263 15.3518V20.3168V20.3668H13.6763H19.6893H19.7393V20.3168V10.3518V10.3018H19.6893H17.6763C16.921 10.3018 16.2308 10.0177 15.7096 9.55057L15.6763 9.52065L15.6429 9.55059C15.1026 10.0352 14.4021 10.3028 13.6763 10.3018H13.6763H11.6763C10.921 10.3018 10.2308 10.0177 9.70964 9.55057L9.67626 9.52065L9.64289 9.55059C9.10261 10.0352 8.40213 10.3028 7.67634 10.3018H7.67627H5.68627ZM3.68444 9.52893C3.388 9.25816 3.14997 8.92947 2.98517 8.56299C2.81394 8.18222 2.72569 7.76938 2.72627 7.35188V7.35181V5.35181C2.72627 4.56942 3.03708 3.81907 3.59031 3.26584C4.14354 2.71261 4.89388 2.40181 5.67627 2.40181H19.6763C20.4587 2.40181 21.209 2.71261 21.7622 3.26584C22.3155 3.81907 22.6263 4.56942 22.6263 5.35181V7.35181C22.6263 8.21914 22.2527 8.99984 21.6557 9.53972L21.6393 9.55461V9.57681V20.3168C21.6393 20.834 21.4338 21.33 21.0681 21.6957C20.7024 22.0614 20.2064 22.2668 19.6893 22.2668H12.0493V22.2659L12.04 22.2677C11.9201 22.2904 11.7983 22.3018 11.6763 22.3018H9.67627C9.55425 22.3018 9.43248 22.2904 9.31256 22.2677L9.31273 22.2668H9.30327H5.68727C5.1701 22.2668 4.67411 22.0614 4.30841 21.6957C3.94272 21.33 3.73727 20.834 3.73727 20.3168V9.59681V9.47611L3.68444 9.52893ZM11.7263 15.3518V15.3018H11.6763H9.67627H9.62627V15.3518V20.3168V20.3668H9.67627H11.6763V20.3178H11.7263V20.3168V20.2668V15.3518ZM14.7263 4.35181V4.30181H14.6763H10.6763H10.6263V4.35181V7.35181C10.6263 7.63028 10.7369 7.89736 10.9338 8.09427C11.1307 8.29118 11.3978 8.40181 11.6763 8.40181H13.6763C13.9548 8.40181 14.2218 8.29118 14.4187 8.09427C14.6156 7.89736 14.7263 7.63028 14.7263 7.35181V4.35181ZM16.6763 4.30181H16.6263V4.35181V7.35181C16.6263 7.63028 16.7369 7.89736 16.9338 8.09427C17.1307 8.29118 17.3978 8.40181 17.6763 8.40181H19.6763C19.9548 8.40181 20.2218 8.29118 20.4187 8.09427C20.6157 7.89736 20.7263 7.63028 20.7263 7.35181V5.35181C20.7263 5.07333 20.6157 4.80626 20.4187 4.60934C20.2218 4.41243 19.9548 4.30181 19.6763 4.30181H16.6763ZM16.6763 13.4018H17.6763C17.9282 13.4018 18.1699 13.5019 18.348 13.6801C18.5262 13.8582 18.6263 14.0999 18.6263 14.3518V17.3518C18.6263 17.6038 18.5262 17.8454 18.348 18.0236C18.1699 18.2017 17.9282 18.3018 17.6763 18.3018H16.6763C16.4243 18.3018 16.1827 18.2017 16.0045 18.0236C15.8264 17.8454 15.7263 17.6038 15.7263 17.3518V14.3518C15.7263 14.0999 15.8264 13.8582 16.0045 13.6801C16.1827 13.5019 16.4243 13.4018 16.6763 13.4018Z" fill="#181725" stroke="white" stroke-width="0.1"/>
</svg>
