<svg width="29" height="19" viewBox="0 0 29 19" fill="none" xmlns="http://www.w3.org/2000/svg">
<path d="M18.565 14.2375C19.3529 14.2375 20.1331 14.0823 20.8611 13.7808C21.589 13.4793 22.2504 13.0373 22.8076 12.4802C23.3647 11.923 23.8067 11.2616 24.1082 10.5336C24.4098 9.80569 24.565 9.02547 24.565 8.23754C24.565 7.44961 24.4098 6.66939 24.1082 5.94144C23.8067 5.21349 23.3647 4.55205 22.8076 3.9949C22.2504 3.43775 21.589 2.99579 20.8611 2.69426C20.1331 2.39274 19.3529 2.23754 18.565 2.23754C16.9737 2.23754 15.4475 2.86968 14.3223 3.9949C13.1971 5.12012 12.565 6.64624 12.565 8.23754C12.565 9.82884 13.1971 11.355 14.3223 12.4802C15.4475 13.6054 16.9737 14.2375 18.565 14.2375ZM24.885 13.1435L28.465 16.7235C28.5604 16.8159 28.6365 16.9263 28.6888 17.0483C28.7411 17.1703 28.7686 17.3016 28.7697 17.4344C28.7708 17.5671 28.7454 17.6988 28.695 17.8217C28.6446 17.9445 28.5703 18.0561 28.4763 18.1499C28.3824 18.2438 28.2707 18.3179 28.1477 18.3681C28.0248 18.4183 27.8931 18.4435 27.7603 18.4423C27.6276 18.441 27.4964 18.4134 27.3744 18.3609C27.2524 18.3084 27.1421 18.2321 27.05 18.1365L23.47 14.5565C21.8624 15.8044 19.8398 16.3927 17.8137 16.2017C15.7877 16.0108 13.9106 15.0549 12.5645 13.5286C11.2185 12.0023 10.5046 10.0205 10.5684 7.98646C10.6321 5.95244 11.4686 4.01916 12.9076 2.58019C14.3466 1.14121 16.2799 0.304708 18.3139 0.240967C20.3479 0.177226 22.3298 0.891038 23.856 2.23709C25.3823 3.58315 26.3382 5.46025 26.5292 7.48629C26.7201 9.51233 26.1318 11.535 24.884 13.1425L24.885 13.1435Z" fill="#181725"/>
<rect x="0.42041" y="0.237038" width="8.85499" height="2.39923" rx="1.19961" fill="#181725"/>
<rect x="0.42041" y="7.67523" width="6.46414" height="2.39923" rx="1.19961" fill="#181725"/>
<rect x="0.42041" y="15.1138" width="8.85499" height="2.39923" rx="1.19961" fill="#181725"/>
</svg>
